# xmcd
#
# Track frame offsets: 
#        150
#        16107
#        28935
#        57922
#        69795
#        93482
#        112982
#        125810
#        135097
#        148035
#
# Disc length: 2132 seconds
#
# Revision: 2
# Processed by: cddbd v1.4PL0 Copyright (c) Steve Scherf et al.
# Submitted via: ExactAudioCopy v0.90b4
#
DISCID=8108520a
DTITLE=John Lee Hooker - Blues Legend
DYEAR=1996
DGENRE=
TTITLE0=Doin' The Shout
TTITLE1=The Motor City is Burning
TTITLE2=House Rent Boogie
TTITLE3=Cry Before I Go
TTITLE4=(I Got) a Good 'un
TTITLE5=I Don't Need No Steam Heat
TTITLE6=Back Biters and Syndicators
TTITLE7=Hey Boogie
TTITLE8=Mr. Lucky
TTITLE9=Boom Boom
EXTD=
EXTT0=
EXTT1=
EXTT2=
EXTT3=
EXTT4=
EXTT5=
EXTT6=
EXTT7=
EXTT8=
EXTT9=
PLAYORDER=
